<?xml version="1.0" encoding="UTF-8" standalone="no"?>
<svg xmlns:dc="http://purl.org/dc/elements/1.1/" xmlns:cc="http://creativecommons.org/ns#" xmlns:rdf="http://www.w3.org/1999/02/22-rdf-syntax-ns#" xmlns:svg="http://www.w3.org/2000/svg" xmlns="http://www.w3.org/2000/svg" xmlns:sodipodi="http://sodipodi.sourceforge.net/DTD/sodipodi-0.dtd" xmlns:inkscape="http://www.inkscape.org/namespaces/inkscape" width="600" height="385.96329" id="svg2" sodipodi:version="0.32" inkscape:version="0.48.2 r9819" sodipodi:docname="Yandex.svg" inkscape:output_extension="org.inkscape.output.svg.inkscape" version="1.0">
  <metadata id="metadata59">
    <rdf:RDF>
      <cc:Work rdf:about="">
        <dc:format>image/svg+xml</dc:format>
        <dc:type rdf:resource="http://purl.org/dc/dcmitype/StillImage"/>
      </cc:Work>
    </rdf:RDF>
  </metadata>
  <sodipodi:namedview inkscape:window-height="988" inkscape:window-width="1400" inkscape:pageshadow="2" inkscape:pageopacity="0.0" guidetolerance="10.0" gridtolerance="10.0" objecttolerance="10.0" borderopacity="1.0" bordercolor="#666666" pagecolor="#ffffff" id="base" showgrid="false" inkscape:zoom="0.74256995" inkscape:cx="457.82443" inkscape:cy="66.284773" inkscape:window-x="-8" inkscape:window-y="-8" inkscape:current-layer="svg2" fit-margin-top="0" fit-margin-left="0" fit-margin-right="0" fit-margin-bottom="0" inkscape:window-maximized="1"/>
  <defs id="defs4">
    <inkscape:perspective sodipodi:type="inkscape:persp3d" inkscape:vp_x="0 : 37.645748 : 1" inkscape:vp_y="0 : 1000 : 0" inkscape:vp_z="129.505 : 37.645748 : 1" inkscape:persp3d-origin="64.752502 : 25.097165 : 1" id="perspective61"/>
    <marker id="ArrowEnd" viewBox="0 0 10 10" refX="0" refY="5" markerUnits="strokeWidth" markerWidth="4" markerHeight="3" orient="auto">
      <path d="M 0,0 10,5 0,10 0,0 z" id="path7" inkscape:connector-curvature="0"/>
    </marker>
    <marker id="ArrowStart" viewBox="0 0 10 10" refX="10" refY="5" markerUnits="strokeWidth" markerWidth="4" markerHeight="3" orient="auto">
      <path d="M 10,0 0,5 10,10 10,0 z" id="path10" inkscape:connector-curvature="0"/>
    </marker>
  </defs>
  <g id="g38" transform="scale(4.6330037,4.6330037)">
    <path inkscape:connector-curvature="0" id="path40" d="M 21.0607,0 14.1613,0 C 7.38301,0 1.63391,5.1601 1.63391,15.1777 c 0,6.0098 2.7842,10.4414 7.74611,12.627 L 0.121216,44.5605 c -0.302704,0.5469 0,0.9707 0.483398,0.9707 l 4.296886,0 c 0.36332,0 0.6055,-0.1211 0.72663,-0.4238 l 8.41207,-16.4531 3.0264,0 0,16.4531 c 0,0.1816 0.1816,0.4238 0.4228,0.4238 l 3.7529,0 c 0.3633,0 0.4844,-0.1816 0.4844,-0.4844 l 0,-44.439439 C 21.7267,0.18158 21.4845,0 21.0607,0 z m -3.9941,24.7695 -2.542,0 c -3.9942,0 -7.86718,-2.9142 -7.86718,-10.1992 0,-7.58995 3.63078,-10.68566 7.32218,-10.68566 l 3.087,0 0,20.88486 z" style="fill:#ff0303;stroke:none"/>
    <path inkscape:connector-curvature="0" id="path42" d="m 57.9113,23.1678 c -0.4248,7.2853 -1.6338,13.2345 -4.7207,18.5158 l 8.7744,0 0,-22.7658 -3.873,0 c 0,1.0314 -0.0606,2.672 -0.1807,4.25 z" style="fill:none;stroke:none"/>
    <path inkscape:connector-curvature="0" id="path44" d="m 80.6662,18.1288 c -2.1182,0 -3.3897,2.6094 -3.9336,7.7696 -0.1211,0.9727 -0.1211,1.8828 -0.1211,1.8828 0,0 2.1787,-0.2422 3.5703,-0.2422 l 3.9941,0 c 0,0 0,-1.0937 -0.0595,-2.0645 -0.3028,-4.6757 -1.5127,-7.3457 -3.4502,-7.3457 z" style="fill:none;stroke:none"/>
    <path inkscape:connector-curvature="0" id="path46" d="m 43.8097,15.0937 -3.7519,0 c -0.3037,0 -0.4844,0.2422 -0.4844,0.4238 l 0,11.5957 -6.9609,0 0,-11.5957 c 0,-0.3027 -0.1202,-0.4238 -0.4229,-0.4238 l -3.7529,0 c -0.3018,0 -0.4834,0.1817 -0.4834,0.4238 l 0,29.5059 c 0,0.3027 0.1211,0.4844 0.4228,0.4844 l 3.8135,0 c 0.2422,0 0.4229,-0.1817 0.4229,-0.4844 l 0,-14.084 6.9609,0 0,14.084 c 0,0.3027 0.1807,0.4844 0.4844,0.4844 l 3.7519,0 c 0.3028,0 0.4229,-0.2422 0.4229,-0.4844 l 0,-29.5059 c 0,-0.2421 -0.1807,-0.4238 -0.4229,-0.4238 z" style="fill:#000000;stroke:none"/>
    <path inkscape:connector-curvature="0" id="path48" d="m 129.484,43.5664 -0.485,-2.0645 c -0.059,-0.1816 -0.12,-0.2422 -0.302,-0.2422 -0.302,0 -1.936,0.666 -4.296,0.666 -4.6,0 -6.839,-4.4296 -6.839,-11.4726 0,-6.1935 1.876,-12.3243 5.022,-12.3243 0.848,0 1.877,0.2423 3.511,1.7618 0.182,0.1815 0.303,0.2422 0.483,0.2422 0.183,0 0.365,-0.1232 0.546,-0.4258 l 1.634,-2.67 c 0.121,-0.1835 0.182,-0.3671 0.182,-0.5488 0,-0.2421 -0.243,-0.4238 -0.606,-0.6054 -2.481,-1.2754 -4.176,-1.5176 -5.629,-1.5176 -5.688,0 -10.106,6.7988 -10.106,17.4218 0,9.168 4.236,14.4493 10.288,14.4493 2.543,0 5.266,-1.2129 6.355,-2.0039 0.242,-0.1817 0.302,-0.4238 0.242,-0.666 z" style="fill:#000000;stroke:none"/>
    <path inkscape:connector-curvature="0" id="path50" d="m 103.18,28.8125 7.263,-13.295 c 0.121,-0.1816 0.06,-0.4238 -0.182,-0.4238 l -3.57,0 c -1.03,0 -1.393,0.3633 -1.755,1.1524 l -5.4485,11.3534 c -0.3018,0.668 -0.6045,1.0918 -0.9073,1.2755 l 0,-13.3575 c 0,-0.2421 -0.1211,-0.4238 -0.3632,-0.4238 l -3.9336,0 c -0.1807,0 -0.3623,0.1817 -0.3623,0.4238 l 0,29.5665 c 0,0.1816 0.121,0.4238 0.3623,0.4238 l 3.9336,0 c 0.2421,0 0.3632,-0.1817 0.3632,-0.4238 l 0,-15.2384 c 0.1817,0.1212 0.3028,0.3028 0.4248,0.5469 l 6.899,14.2051 c 0.363,0.7285 0.908,0.9102 1.695,0.9102 l 3.872,0 c 0.243,0 0.303,-0.2422 0.183,-0.4238 L 103.18,28.8125 z" style="fill:#000000;stroke:none"/>
    <path inkscape:connector-curvature="0" id="path52" d="m 68.5021,41.6836 -0.7266,0 c -0.9082,0 -1.1494,-0.3633 -1.1494,-1.0918 l 0,-25.0743 c 0,-0.3027 -0.1211,-0.4238 -0.3633,-0.4238 l -12.1044,0 c -0.3018,0 -0.4844,0.1817 -0.4844,0.4238 l 0,2.1856 c 0,7.3457 -0.4229,16.8164 -4.2959,23.9805 l -1.332,0 c -0.3633,0 -0.4844,0.1836 -0.4844,0.4863 0,0 0,7.2851 0,8.8633 0,0.3047 0.2422,0.4238 0.4238,0.4238 l 2.9053,0 c 0.665,0 0.9072,-0.4844 0.9072,-0.9102 l 0,-5.039 12.9522,0 0,5.5254 c 0,0.2422 0.1806,0.4238 0.4228,0.4238 l 3.0869,0 c 0.3623,0 0.7256,-0.3027 0.7256,-0.9102 l 0,-8.3769 c 0,-0.3027 -0.1816,-0.4863 -0.4834,-0.4863 z m -6.5371,0 -8.7744,0 c 3.0869,-5.2813 4.2959,-11.2305 4.7207,-18.5158 0.1201,-1.578 0.1807,-3.2186 0.1807,-4.25 l 3.873,0 0,22.7658 z" style="fill:#000000;stroke:none"/>
    <path inkscape:connector-curvature="0" id="path54" d="m 80.8478,14.3652 c -6.5351,0 -9.4404,8.2559 -9.4404,17.2401 0,9.1681 4.1152,14.631 10.167,14.631 2.9648,0 5.5683,-1.1523 6.8994,-2.0039 0.2422,-0.1211 0.3017,-0.3027 0.2422,-0.5449 L 88.2316,41.623 c -0.0605,-0.2422 -0.1816,-0.3633 -0.4844,-0.3633 -0.2412,0 -1.997,0.666 -4.4785,0.666 -4.6601,0 -6.8389,-4.0664 -6.8389,-9.4082 0,-0.7305 0,-1.4375 0,-1.4375 0,0 2.3604,0.2832 3.752,0.2832 l 8.8369,0 0,-2.5507 c 0,-9.4082 -3.3301,-14.4473 -8.1709,-14.4473 z m -0.666,13.1738 c -1.3916,0 -3.5703,0.2422 -3.5703,0.2422 0,0 0,-0.9101 0.1211,-1.8828 0.5439,-5.1602 1.8154,-7.7696 3.9336,-7.7696 1.9375,0 3.1474,2.67 3.4502,7.3457 0.0595,0.9708 0.0595,2.0645 0.0595,2.0645 l -3.9941,0 z" style="fill:#000000;stroke:none"/>
  </g>
  <g id="g56" transform="translate(4.6882543e-6,273.5343)"/>
  <rect style="fill:#04a300;fill-opacity:1;fill-rule:evenodd;stroke:none" id="rect3867" width="599.31122" height="127.60052" x="0.41905609" y="258.36276"/>
  <path style="fill:#ffffff;fill-opacity:1;fill-rule:evenodd;stroke:none" d="m 121.25554,320.50335 0,-33.58269 7.65921,0 7.65922,0 0,14.00018 0,14.00019 0.77854,-0.11387 c 2.79499,-0.40879 4.76275,-1.38391 5.94785,-2.94745 0.52645,-0.69456 1.67434,-2.99088 2.32684,-4.65477 0.26322,-0.67123 1.00522,-2.80749 1.64888,-4.74723 1.31035,-3.9489 1.9854,-5.72399 2.8901,-7.59976 1.47245,-3.05292 2.82206,-4.83828 4.52726,-5.98893 1.20487,-0.81304 2.60337,-1.42256 4.16697,-1.81613 2.3924,-0.60219 4.5744,-0.67395 9.97062,-0.32789 l 0.82063,0.0526 0,5.45821 0,5.45821 -0.6523,8.5e-4 c -0.96782,0.001 -2.97677,0.15546 -3.93481,0.30207 -1.83114,0.28023 -3.09111,0.75005 -3.76318,1.40323 -1.10209,1.0711 -2.30327,3.61089 -3.47231,7.34183 -0.99536,3.17667 -1.49017,4.47193 -2.36074,6.17968 -1.68124,3.29798 -3.51273,5.17722 -6.12062,6.2802 -0.54318,0.22973 -0.98822,0.44298 -0.98897,0.47388 -7.6e-4,0.0309 0.36792,0.17763 0.81927,0.32607 1.90671,0.62706 3.13654,1.25032 4.55582,2.30882 3.05917,2.28154 5.95014,6.2921 8.25289,11.44901 0.34405,0.77049 9.40271,19.45772 9.78203,20.17949 0.0738,0.14042 -0.32756,0.14665 -8.13738,0.12625 l -8.215,-0.0215 -4.19101,-10.10006 c -2.30505,-5.55503 -4.351,-10.45987 -4.54655,-10.89964 -0.66169,-1.48805 -1.71593,-3.46976 -2.37895,-4.47183 -1.64151,-2.48093 -3.32014,-3.36505 -6.779,-3.5704 l -0.94688,-0.0562 0,14.57012 0,14.57012 -7.65922,0 -7.65921,0 0,-33.5827 z" id="path3783" inkscape:connector-curvature="0"/>
  <path style="fill:#ffffff;fill-opacity:1;fill-rule:evenodd;stroke:none" d="m 195.69296,355.59609 c -4.36034,-0.26581 -8.05644,-1.55317 -11.06798,-3.85501 -0.73316,-0.56038 -2.07412,-1.87366 -2.80506,-2.74715 -1.80683,-2.1592 -3.22012,-5.03414 -3.83354,-7.79823 -0.63808,-2.87522 -0.73176,-6.19036 -0.25531,-9.0352 0.47501,-2.83626 1.63045,-5.67666 3.20448,-7.8775 3.31081,-4.62927 8.12804,-6.94405 19.51286,-9.37635 6.8754,-1.46889 11.82205,-2.83171 14.603,-4.02317 l 0.88375,-0.37863 0.0267,-1.50266 c 0.0669,-3.77188 -0.57258,-6.27735 -2.05971,-8.06995 -1.16234,-1.40109 -3.4334,-2.31635 -6.59407,-2.65747 -1.47221,-0.15889 -4.39151,-0.14103 -5.51906,0.0337 -3.74911,0.58118 -5.92851,2.23349 -7.65424,5.80309 -0.29659,0.61347 -0.65008,1.41841 -0.78554,1.78874 -0.22162,0.60588 -0.26622,0.67045 -0.44523,0.64452 -0.32003,-0.0464 -13.31371,-2.62495 -13.48139,-2.67537 -0.20085,-0.0604 -0.17208,-0.18842 0.4892,-2.17751 1.40528,-4.22691 3.12964,-7.21528 5.66891,-9.82433 1.62774,-1.67247 2.99565,-2.67992 4.936,-3.63531 4.15696,-2.04679 9.32348,-2.93271 16.32843,-2.79991 5.3063,0.10061 9.06799,0.63372 12.27515,1.73967 4.0684,1.40292 7.73528,4.33818 9.5444,7.64008 1.05614,1.92762 1.71566,4.76499 2.07845,8.9419 0.27699,3.18902 0.3072,5.60668 0.20718,16.58093 -0.13038,14.3053 -0.0752,18.29968 0.30807,22.30429 0.32661,3.41254 1.13503,6.67454 2.52793,10.20028 0.25037,0.63376 0.45523,1.17349 0.45523,1.19938 0,0.0259 -3.36955,0.0471 -7.48789,0.0471 l -7.48789,0 -0.30124,-0.94688 c -0.16569,-0.52079 -0.5115,-1.72333 -0.76848,-2.67231 -0.69686,-2.57343 -1.11581,-4.03926 -1.19476,-4.18035 -0.0547,-0.0977 -0.24191,0.0598 -0.83435,0.70158 -0.833,0.90239 -2.36851,2.31762 -3.4301,3.16139 -4.22296,3.35652 -8.63218,5.10762 -13.71924,5.44853 -1.3884,0.0931 -1.77037,0.0928 -3.32461,-0.002 l 0,1e-5 z m 9.30047,-11.84613 c 2.1391,-0.46517 4.36625,-1.56987 6.28372,-3.11683 1.30389,-1.05194 2.4398,-2.45984 3.16909,-3.92793 0.94734,-1.90702 1.25798,-3.42503 1.44668,-7.06971 0.11177,-2.15865 0.11121,-8.4588 -7.5e-4,-8.4588 -0.0468,0 -0.5297,0.15406 -1.07314,0.34235 -1.60089,0.55468 -4.57822,1.38844 -7.50936,2.10289 -5.82939,1.42089 -7.95963,2.06887 -9.80712,2.98319 -1.66098,0.822 -2.81716,1.90294 -3.71323,3.4716 -1.63742,2.86646 -1.30271,6.94798 0.81592,9.9495 1.44907,2.05293 3.49633,3.36524 5.98917,3.83913 0.88711,0.16864 3.39545,0.10285 4.39901,-0.11539 l 1e-5,0 z" id="path3785" inkscape:connector-curvature="0"/>
  <path style="fill:#ffffff;fill-opacity:1;fill-rule:evenodd;stroke:none" d="m 247.90629,333.50718 0,-46.58652 7.11154,0 7.11153,0 0.0216,5.69558 0.0216,5.69558 0.90755,-1.50826 c 2.15836,-3.58703 4.32556,-5.87218 7.63542,-8.051 2.64704,-1.74249 5.29552,-2.72403 8.62713,-3.19723 1.17808,-0.16733 4.56365,-0.13632 5.80754,0.0532 1.24357,0.18947 3.03089,0.62264 4.04002,0.97912 3.99132,1.40995 7.63549,4.11243 10.7283,7.95602 4.9737,6.18106 7.40972,14.60076 7.40972,25.61042 0,11.7147 -2.64639,20.55131 -8.06669,26.93558 -0.9374,1.10412 -2.80528,2.94371 -3.80088,3.74332 -1.77631,1.42664 -4.17565,2.80378 -6.16164,3.53658 -4.51965,1.66768 -9.94423,1.70239 -14.25576,0.0912 -3.38041,-1.26321 -6.71487,-3.83177 -10.26152,-7.90451 -0.6018,-0.69106 -1.19722,-1.37218 -1.32317,-1.5136 l -0.22899,-0.25711 -0.002,17.65406 -0.002,17.65406 -7.65921,0 -7.65921,0 0,-46.58652 z m 31.78848,8.74917 c 3.02044,-0.4485 5.62937,-2.01591 7.75595,-4.6597 2.40563,-2.9907 3.70082,-7.16678 4.13643,-13.33715 0.11423,-1.61801 0.11426,-6.2132 5e-5,-7.69564 -0.23342,-3.02976 -0.73898,-5.72908 -1.46203,-7.80621 -0.96832,-2.78169 -2.06447,-4.57382 -3.96439,-6.48145 -2.03792,-2.04621 -4.08605,-3.12447 -6.73245,-3.54438 -1.05141,-0.16683 -3.53887,-0.11249 -4.50438,0.0984 -2.54147,0.55512 -4.7365,1.78569 -6.59626,3.69797 -2.9299,3.01264 -4.49916,6.9745 -5.11954,12.92512 -0.16696,1.60149 -0.14026,6.89059 0.0442,8.75339 0.6316,6.37865 2.17608,10.53498 5.11853,13.7745 2.29814,2.53014 4.90596,3.94278 8.026,4.34762 0.66267,0.086 2.50309,0.0455 3.2979,-0.0725 l 0,0 z" id="path3787" inkscape:connector-curvature="0"/>
  <path style="fill:#ffffff;fill-opacity:1;fill-rule:evenodd;stroke:none" d="m 334.05898,327.27881 0,-26.80724 -9.93172,0 -9.93172,0 0,-6.77546 0,-6.77545 27.52265,0 27.52266,0 0,6.77545 0,6.77546 -9.93172,0 -9.93172,0 0,26.80724 0,26.80724 -7.65922,0 -7.65921,0 0,-26.80724 z" id="path3789" inkscape:connector-curvature="0"/>
  <path style="fill:#ffffff;fill-opacity:1;fill-rule:evenodd;stroke:none" d="m 380.33966,320.50335 0,-33.58269 7.65921,0 7.65921,0 0,14.17583 0,14.17584 10.92069,0.0369 c 11.17643,0.0377 11.74648,0.053 14.91257,0.40131 6.02113,0.66229 9.02413,1.86941 11.98441,4.81736 3.08677,3.07391 4.95725,7.05065 5.49126,11.67474 0.17055,1.47681 0.1262,4.82189 -0.0824,6.21183 -1.45415,9.69125 -8.02002,14.69327 -20.45937,15.58634 -0.73584,0.0528 -8.10811,0.0847 -19.63199,0.0849 l -18.45364,3.5e-4 0,-33.5827 z m 34.76103,23.03556 c 1.17379,-0.18844 2.41465,-0.50268 3.24044,-0.82061 2.7427,-1.05594 4.30898,-3.04774 4.80099,-6.10529 0.15649,-0.97247 0.1788,-3.07676 0.0419,-3.9475 -0.33857,-2.1528 -1.29513,-3.85475 -2.74999,-4.89291 -1.73531,-1.2383 -4.38191,-1.92843 -8.86831,-2.31253 -0.5875,-0.0503 -4.33212,-0.10912 -8.47984,-0.13321 l -7.42775,-0.0431 0,9.22866 0,9.22866 9.27943,-0.0301 c 8.20093,-0.0266 9.38214,-0.0466 10.16318,-0.17201 z" id="path3791" inkscape:connector-curvature="0"/>
  <path style="fill:#ffffff;fill-opacity:1;fill-rule:evenodd;stroke:none" d="m 449.57605,320.50335 0,-33.58269 7.65921,0 7.65921,0 0,33.58269 0,33.5827 -7.65921,0 -7.65921,0 0,-33.5827 z" id="path3793" inkscape:connector-curvature="0"/>
</svg>